<?xml version="1.0" encoding="utf-8"?>
<!-- Generator: Adobe Illustrator 24.2.0, SVG Export Plug-In . SVG Version: 6.00 Build 0)  -->
<svg version="1.1" id="Layer_1" xmlns="http://www.w3.org/2000/svg" xmlns:xlink="http://www.w3.org/1999/xlink" x="0px" y="0px"
	 viewBox="0 0 2129.84 1162.44" style="enable-background:new 0 0 2129.84 1162.44;" xml:space="preserve">
<style type="text/css">
	.st0{fill:#1496BB;}
	.st1{fill:none;}
</style>
<g>
	<g>
		<g>
			<path class="st0" d="M715,535.58l-17.72-7.51l-21.24-8.98v-32.48l-6.68-13.02v-0.03l-0.63-1.23c-1.07-2.09-4.05-2.09-5.12,0
				l-0.63,1.23v0.03l-6.68,13.02v32.48l-21.24,8.98l-17.72,7.51l48.83-95.35L715,535.58z"/>
			<polygon class="st0" points="624.37,610.42 623.58,624.16 649.11,618.15 621.64,722.21 521.74,722.21 593.14,582.81 
				545.89,577.95 600.92,567.62 616.28,564.73 654.93,557.47 651.31,595.16 			"/>
			<line class="st0" x1="593.95" y1="582.9" x2="593.14" y2="582.81"/>
			<path class="st0" d="M651.31,595.16"/>
		</g>
		<g>
			<polygon class="st0" points="707.96,610.42 708.75,624.16 683.22,618.15 710.7,722.21 810.59,722.21 739.19,582.81 
				786.44,577.95 731.42,567.62 716.05,564.73 677.4,557.47 681.02,595.16 			"/>
			<line class="st0" x1="739.19" y1="582.81" x2="738.38" y2="582.9"/>
			<path class="st0" d="M681.02,595.16"/>
		</g>
	</g>
	<g>
		<g>
			<path class="st0" d="M881.32,570.95h16.3l30.41,99.36h-13.91l-7.32-25.89h-34.81l-7.19,25.89h-13.91L881.32,570.95z
				 M889.44,582.8l-14.18,50.85h28.35L889.44,582.8z"/>
			<path class="st0" d="M1008.73,666.79c-3.42,1.82-6.92,3.18-10.51,4.09c-3.59,0.91-7.41,1.36-11.45,1.36
				c-12.74,0-22.62-4.5-29.65-13.51c-7.03-9.01-10.55-21.67-10.55-38c0-16.24,3.54-28.89,10.61-37.97
				c7.08-9.07,16.94-13.61,29.58-13.61c4.04,0,7.85,0.46,11.45,1.36c3.59,0.91,7.1,2.27,10.51,4.09v13.78
				c-3.28-2.71-6.81-4.77-10.58-6.19c-3.77-1.42-7.57-2.13-11.38-2.13c-8.74,0-15.29,3.37-19.63,10.12
				c-4.35,6.74-6.52,16.93-6.52,30.55c0,13.58,2.17,23.74,6.52,30.48c4.35,6.74,10.89,10.12,19.63,10.12c3.9,0,7.73-0.71,11.48-2.13
				c3.75-1.42,7.24-3.48,10.48-6.19V666.79z"/>
			<path class="st0" d="M1059.08,570.95h16.3l30.41,99.36h-13.91l-7.32-25.89h-34.81l-7.19,25.89h-13.91L1059.08,570.95z
				 M1067.2,582.8l-14.18,50.85h28.35L1067.2,582.8z"/>
			<path class="st0" d="M1165.66,623.39c3.46,0.89,6.41,2.56,8.85,5.02c2.44,2.46,5.48,7.38,9.12,14.74l13.51,27.15h-14.44
				l-11.85-25.09c-3.42-7.14-6.49-11.75-9.22-13.81c-2.73-2.06-6.29-3.1-10.68-3.1h-12.84v42h-13.51v-99.36h27.69
				c10.91,0,19.28,2.46,25.09,7.39c5.81,4.92,8.72,12.05,8.72,21.36c0,6.57-1.79,11.92-5.36,16.07
				C1177.16,619.92,1172.13,622.46,1165.66,623.39z M1138.1,582v35.27h14.71c6.43,0,11.22-1.44,14.37-4.33
				c3.15-2.88,4.73-7.3,4.73-13.24c0-5.72-1.68-10.1-5.02-13.14c-3.35-3.04-8.22-4.56-14.61-4.56H1138.1z"/>
			<path class="st0" d="M1271.3,574.34v13.64c-4.08-2.62-8.18-4.59-12.28-5.92c-4.1-1.33-8.24-2-12.41-2
				c-6.35,0-11.36,1.48-15.04,4.43c-3.68,2.95-5.52,6.93-5.52,11.95c0,4.39,1.21,7.74,3.63,10.05c2.42,2.31,6.93,4.24,13.54,5.79
				l7.05,1.6c9.32,2.17,16.1,5.59,20.37,10.25c4.26,4.66,6.39,11,6.39,19.03c0,9.45-2.93,16.66-8.79,21.63
				c-5.86,4.97-14.37,7.45-25.56,7.45c-4.66,0-9.34-0.5-14.04-1.5c-4.7-1-9.43-2.5-14.17-4.49v-14.31c5.1,3.24,9.93,5.61,14.47,7.12
				c4.55,1.51,9.13,2.26,13.74,2.26c6.79,0,12.07-1.52,15.84-4.56c3.77-3.04,5.66-7.29,5.66-12.74c0-4.97-1.3-8.76-3.89-11.38
				c-2.6-2.62-7.11-4.64-13.54-6.06l-7.19-1.66c-9.23-2.08-15.93-5.23-20.1-9.45c-4.17-4.22-6.26-9.87-6.26-16.97
				c0-8.87,2.98-15.98,8.95-21.33c5.97-5.35,13.9-8.02,23.79-8.02c3.82,0,7.83,0.43,12.05,1.3
				C1262.21,571.32,1266.64,572.61,1271.3,574.34z"/>
		</g>
		<g>
			<g>
				<path class="st0" d="M1363.79,570.95h13.51v38.07h36.8v-38.07h13.51v99.36h-13.51v-49.98h-36.8v49.98h-13.51V570.95z"/>
				<path class="st0" d="M1453.34,632.18v-61.23h13.51v67.35c0,4.84,0.13,8.29,0.4,10.35c0.27,2.06,0.73,3.65,1.4,4.76
					c1.42,2.62,3.47,4.59,6.16,5.92c2.68,1.33,5.93,2,9.75,2c3.86,0,7.12-0.67,9.78-2c2.66-1.33,4.72-3.3,6.19-5.92
					c0.67-1.11,1.13-2.68,1.4-4.73c0.27-2.04,0.4-5.46,0.4-10.25v-67.49h13.44v61.23c0,10.16-0.63,17.38-1.9,21.66
					c-1.26,4.28-3.45,7.82-6.56,10.61c-2.93,2.62-6.28,4.57-10.05,5.86c-3.77,1.29-8.01,1.93-12.71,1.93
					c-4.66,0-8.87-0.64-12.64-1.93c-3.77-1.29-7.14-3.24-10.12-5.86c-3.06-2.75-5.24-6.31-6.52-10.68
					C1453.98,649.41,1453.34,642.21,1453.34,632.18z"/>
				<path class="st0" d="M1543.48,570.95h29.42c10.16,0,17.99,2.2,23.49,6.59c5.5,4.39,8.25,10.6,8.25,18.64
					c0,4.3-1.45,8.21-4.36,11.71c-2.91,3.51-7.27,5.7-13.08,6.59c6.52,0.98,11.64,3.76,15.34,8.35c3.7,4.59,5.56,11.33,5.56,20.2
					c0,9.01-2.95,15.81-8.85,20.4c-5.9,4.59-14.69,6.89-26.35,6.89h-29.42V570.95z M1556.99,582v27.29h15.64
					c6.48,0,11.17-1.24,14.08-3.73c2.91-2.49,4.36-5.61,4.36-9.38c0-5.01-1.43-8.63-4.29-10.85c-2.86-2.22-7.58-3.33-14.14-3.33
					H1556.99z M1556.99,620.2v39.07h15.91c7.81,0,13.38-1.36,16.71-4.09c3.33-2.73,4.99-7.22,4.99-13.48
					c0-8.25-1.75-13.9-5.26-16.94c-3.51-3.04-8.98-4.56-16.44-4.56H1556.99z"/>
			</g>
		</g>
		<g>
			<g>
				<path class="st0" d="M974.52,486.73c-12.69-12.69-29.54-18.78-46.22-18.25l0.07,6.98c14.85-0.52,29.89,4.89,41.21,16.2
					c11.33,11.33,16.72,26.36,16.2,41.21l6.98,0.07C993.3,516.28,987.22,499.44,974.52,486.73z"/>
			</g>
			<g>
				<path class="st0" d="M963.54,497.71c-9.64-9.64-22.45-14.19-35.1-13.69l0.07,6.98c10.82-0.51,21.84,3.39,30.09,11.65
					c8.26,8.26,12.15,19.27,11.65,30.09l6.98,0.07C977.73,520.16,973.18,507.35,963.54,497.71z"/>
			</g>
			<g>
				<path class="st0" d="M952.56,508.69c-6.58-6.58-15.36-9.63-23.98-9.16l0.07,7c6.81-0.46,13.78,1.9,18.97,7.09
					c5.2,5.2,7.56,12.17,7.1,18.98l7,0.07C962.19,524.05,959.14,515.27,952.56,508.69z"/>
			</g>
			<path class="st0" d="M956.58,583.56c-20.95,2.88-42.92-3.73-59.03-19.84s-22.73-38.09-19.85-59.04l36.95,36.95l12.39-12.39
				c-0.65-2.38-0.04-5.03,1.83-6.91c2.77-2.77,7.27-2.77,10.03,0c2.78,2.78,2.78,7.28,0.01,10.05c-1.88,1.88-4.54,2.48-6.92,1.82
				l-12.39,12.39L956.58,583.56z"/>
		</g>
	</g>
</g>
<rect x="0" class="st1" width="2129.84" height="1162.44"/>
</svg>
