<svg version="1.1" xmlns="http://www.w3.org/2000/svg" viewBox="-2.5 -2.5 22 22" width="24.200000000000003" height="24.200000000000003"><g><path paint-order="stroke" fill="green" stroke="black" stroke-width="4" d="M5.25,16.76c-.92,0-1.33-.46-1.39-.86a1,1,0,0,1,.79-1.11c.25-.08,1.22-.43,2.63-1V10.65h-6c-.68,0-1-.35-1-.66a.81.81,0,0,1,.6-.86C1.14,9,4.8,7,7.28,5.63V3c0-1.11.44-2.71,1.23-2.71S9.77,1.84,9.77,3V5.63C12.22,7,15.87,9,16.14,9.13a.8.8,0,0,1,.61.86c-.05.31-.36.67-1.05.67H9.77v3.19l1.61.59,1,.36a1.05,1.05,0,0,1,.8,1.11c-.07.39-.47.86-1.39.86Z"/></g></svg>
