<?xml version="1.0" encoding="utf-8"?>
<!-- Svg Vector Icons : http://www.onlinewebfonts.com/icon -->
<!DOCTYPE svg PUBLIC "-//W3C//DTD SVG 1.1//EN" "http://www.w3.org/Graphics/SVG/1.1/DTD/svg11.dtd">
<svg version="1.1" xmlns="http://www.w3.org/2000/svg" xmlns:xlink="http://www.w3.org/1999/xlink" x="0px" y="0px" viewBox="0 0 1000 1000" enable-background="new 0 0 1000 1000" xml:space="preserve">
<metadata> Svg Vector Icons : http://www.onlinewebfonts.com/icon </metadata>
<g><path d="M552.5,614.1c0.8-14.1,16.9-9.2,16.9-9.2L696,630.7l261.3,99.4c0-49-7.8-54.1-19.2-62.7L565.3,400c0,0-10-122.5-10-230.5c0-50-24.1-159.5-55.3-159.5c-31.2,0-55.3,111.1-55.3,159.5c0,102.5-10,230.5-10,230.5L61.9,667.4c-14.5,10.2-19.2,15.7-19.2,62.7L304,630.7l126.4-25.7c0,0,16.1-4.9,16.9,9.2c0.8,14.1-2.5,141.1,12,208.5c1.8,9-5.1,9.6-9.8,15.1l-106,67c-3.5,3.9-5.1,14.9-5.1,14.9l-2,37.8l138.8-32.7l24.5,65.3l24.5-65.3l138.8,32.7l-2-37.8c0.2,0-1.4-11-4.9-14.9l-106-67c-4.7-5.5-11.6-6.1-9.8-15.1C554.5,755.2,551.7,628.2,552.5,614.1z"/></g>
</svg>
