<?xml version="1.0" encoding="utf-8" ?>
<!-- Generator: Adobe Illustrator 24.2.0, SVG Export Plug-In . SVG Version: 6.00 Build 0)  -->
<svg
    version="1.1"
    id="Layer_1"
    xmlns="http://www.w3.org/2000/svg"
    xmlns:xlink="http://www.w3.org/1999/xlink"
    x="0px"
    y="0px"
    viewBox="680 290 800 590"
    style="enable-background:new 680 290 800 590;"
    xml:space="preserve"
>
<style type="text/css">
.st0 {
    fill: none;
}
.st1 {
    fill: #1496bb;
}
    </style>
<rect x="0" class="st0" width="2129.84" height="1162.44" />
<g>
	<g>
		<g>
			<path
                    class="st1"
                    d="M714.99,765.33h16.76l31.27,102.15h-14.3l-7.53-26.61h-35.78l-7.39,26.61h-14.3L714.99,765.33z
				 M723.34,777.5l-14.57,52.27h29.15L723.34,777.5z"
                />
			<path
                    class="st1"
                    d="M845.97,863.85c-3.51,1.87-7.12,3.27-10.81,4.21c-3.7,0.93-7.62,1.4-11.77,1.4
				c-13.09,0-23.25-4.63-30.48-13.89c-7.23-9.26-10.84-22.28-10.84-39.07c0-16.69,3.64-29.7,10.91-39.03
				c7.27-9.33,17.41-13.99,30.41-13.99c4.15,0,8.07,0.47,11.77,1.4c3.69,0.94,7.3,2.34,10.81,4.21v14.16
				c-3.38-2.78-7-4.9-10.88-6.36c-3.88-1.46-7.78-2.19-11.7-2.19c-8.99,0-15.71,3.47-20.18,10.4c-4.47,6.93-6.7,17.4-6.7,31.4
				c0,13.96,2.23,24.4,6.7,31.34c4.47,6.93,11.2,10.4,20.18,10.4c4.01,0,7.95-0.73,11.8-2.19c3.85-1.46,7.45-3.58,10.77-6.36V863.85
				z"
                />
			<path
                    class="st1"
                    d="M897.72,765.33h16.76l31.27,102.15h-14.3l-7.53-26.61h-35.78l-7.39,26.61h-14.3L897.72,765.33z
				 M906.07,777.5l-14.57,52.27h29.15L906.07,777.5z"
                />
			<path
                    class="st1"
                    d="M1007.28,819.24c3.56,0.91,6.59,2.63,9.1,5.17c2.51,2.53,5.63,7.58,9.37,15.15l13.89,27.91h-14.85
				l-12.18-25.79c-3.51-7.34-6.67-12.08-9.48-14.2c-2.81-2.12-6.47-3.18-10.98-3.18h-13.2v43.17h-13.89V765.33h28.46
				c11.22,0,19.82,2.53,25.79,7.59c5.97,5.06,8.96,12.38,8.96,21.96c0,6.75-1.84,12.26-5.51,16.52
				C1019.11,815.67,1013.94,818.28,1007.28,819.24z M978.96,776.68v36.26h15.12c6.61,0,11.54-1.48,14.78-4.45
				c3.24-2.96,4.86-7.5,4.86-13.61c0-5.88-1.72-10.39-5.17-13.51c-3.44-3.12-8.45-4.69-15.02-4.69H978.96z"
                />
			<path
                    class="st1"
                    d="M1115.89,768.81v14.03c-4.2-2.69-8.41-4.72-12.62-6.09c-4.22-1.37-8.47-2.05-12.76-2.05
				c-6.52,0-11.68,1.52-15.46,4.55c-3.79,3.03-5.68,7.13-5.68,12.28c0,4.52,1.24,7.96,3.73,10.33c2.48,2.37,7.13,4.36,13.92,5.95
				l7.25,1.64c9.58,2.24,16.56,5.75,20.94,10.54c4.38,4.79,6.57,11.31,6.57,19.57c0,9.71-3.01,17.13-9.03,22.24
				c-6.02,5.11-14.78,7.66-26.27,7.66c-4.79,0-9.6-0.51-14.44-1.54c-4.83-1.03-9.69-2.57-14.57-4.62v-14.71
				c5.24,3.33,10.2,5.77,14.88,7.32c4.67,1.55,9.38,2.33,14.13,2.33c6.98,0,12.41-1.56,16.28-4.69c3.88-3.12,5.82-7.49,5.82-13.1
				c0-5.11-1.33-9.01-4-11.7c-2.67-2.69-7.31-4.77-13.92-6.23l-7.39-1.71c-9.49-2.14-16.38-5.38-20.66-9.72
				c-4.29-4.33-6.43-10.15-6.43-17.45c0-9.12,3.07-16.43,9.2-21.93c6.13-5.5,14.29-8.24,24.46-8.24c3.92,0,8.05,0.45,12.38,1.33
				C1106.54,765.7,1111.1,767.04,1115.89,768.81z"
                />
		</g>
		<g>
			<g>
				<path
                        class="st1"
                        d="M1194.97,765.33h13.89v39.13h37.83v-39.13h13.89v102.15h-13.89v-51.38h-37.83v51.38h-13.89V765.33z"
                    />
				<path
                        class="st1"
                        d="M1287.02,828.27v-62.94h13.89v69.24c0,4.97,0.14,8.52,0.41,10.64c0.27,2.12,0.75,3.75,1.44,4.89
					c1.46,2.69,3.57,4.72,6.33,6.09c2.76,1.37,6.1,2.05,10.02,2.05c3.97,0,7.32-0.68,10.06-2.05c2.74-1.37,4.86-3.4,6.36-6.09
					c0.68-1.14,1.16-2.76,1.44-4.86c0.27-2.1,0.41-5.61,0.41-10.54v-69.38h13.82v62.94c0,10.45-0.65,17.87-1.95,22.27
					c-1.3,4.4-3.55,8.04-6.74,10.91c-3.01,2.69-6.45,4.7-10.33,6.02c-3.88,1.32-8.23,1.98-13.07,1.98c-4.79,0-9.12-0.66-13-1.98
					c-3.88-1.32-7.34-3.33-10.4-6.02c-3.15-2.83-5.38-6.49-6.7-10.98C1287.68,845.98,1287.02,838.58,1287.02,828.27z"
                    />
				<path
                        class="st1"
                        d="M1379.69,765.33h30.24c10.44,0,18.49,2.26,24.15,6.77c5.65,4.52,8.48,10.9,8.48,19.16
					c0,4.42-1.49,8.44-4.48,12.04c-2.99,3.6-7.47,5.86-13.44,6.77c6.71,1,11.96,3.87,15.77,8.59c3.81,4.72,5.71,11.64,5.71,20.76
					c0,9.26-3.03,16.25-9.1,20.97c-6.07,4.72-15.1,7.08-27.09,7.08h-30.24V765.33z M1393.57,776.68v28.05h16.08
					c6.66,0,11.48-1.28,14.47-3.83c2.99-2.55,4.48-5.77,4.48-9.65c0-5.15-1.47-8.87-4.41-11.15c-2.94-2.28-7.79-3.42-14.54-3.42
					H1393.57z M1393.57,815.96v40.16h16.35c8.03,0,13.75-1.4,17.17-4.21c3.42-2.8,5.13-7.42,5.13-13.85c0-8.48-1.8-14.29-5.41-17.41
					c-3.6-3.12-9.24-4.69-16.9-4.69H1393.57z"
                    />
			</g>
		</g>
		<g>
			<g>
				<path
                        class="st1"
                        d="M810.79,678.75c-13.05-13.05-30.37-19.31-47.51-18.76l0.07,7.18c15.27-0.53,30.73,5.02,42.37,16.66
					c11.65,11.65,17.19,27.1,16.66,42.37l7.18,0.07C830.1,709.12,823.85,691.81,810.79,678.75z"
                    />
			</g>
			<g>
				<path
                        class="st1"
                        d="M799.51,690.04c-9.91-9.91-23.08-14.59-36.08-14.07l0.07,7.18c11.13-0.52,22.45,3.49,30.93,11.97
					c8.49,8.49,12.49,19.81,11.97,30.93l7.18,0.07C814.1,713.12,809.42,699.95,799.51,690.04z"
                    />
			</g>
			<g>
				<path
                        class="st1"
                        d="M788.22,701.32c-6.76-6.76-15.79-9.9-24.65-9.41l0.07,7.2c7-0.47,14.16,1.95,19.5,7.29
					c5.35,5.35,7.78,12.52,7.3,19.51l7.2,0.07C798.12,717.11,794.98,708.08,788.22,701.32z"
                    />
			</g>
			<path
                    class="st1"
                    d="M792.35,778.29c-21.53,2.96-44.13-3.84-60.68-20.39c-16.56-16.56-23.36-39.16-20.4-60.69l37.99,37.99
				l12.74-12.74c-0.67-2.45-0.05-5.17,1.88-7.1c2.84-2.84,7.47-2.84,10.32,0c2.86,2.86,2.86,7.48,0.01,10.33
				c-1.93,1.93-4.67,2.55-7.11,1.87l-12.74,12.74L792.35,778.29z"
                />
		</g>
	</g>
	<g>
		<g>
			<path
                    class="st1"
                    d="M1287.96,512.96l-33.47,1.86l5.68,5.6l-8.97,7.51l-17.61,14.74l-26.87,22.5l-22.29,18.66l-119.51,100.04
				L945.41,583.83l-22.31-18.66l-26.87-22.5l-17.61-14.75l-8.97-7.49l5.68-5.6l-33.47-1.86l-9.09,8.97l0.28,0.23l17.62,14.75
				l214.24,179.32l214.23-179.32l17.61-14.74l0.29-0.25L1287.96,512.96z M1064.92,327.86l177.64,175.21l33.46-1.86l-211.11-208.22
				L853.8,501.2l33.47,1.86L1064.92,327.86z"
                />
		</g>
		<path class="st1" d="M1063.88,501.48" />
		<path
                class="st1"
                d="M1370.36,508.37v4.5l-73.6,9.31l-45.55,5.76l-61.05,7.71c4.86,4.3,7.73,10.8,7.01,17.93
			c-0.98,9.71-8.81,17.62-18.51,18.71c-12.69,1.4-23.41-8.49-23.41-20.88c0-4.38,1.33-8.44,3.61-11.81l-51.73,6.53
			c-12.07,12.43-25.83,19.63-34.27,23.23c-5.09,2.17-10.81,2.17-15.89,0c-8.44-3.6-22.22-10.8-34.27-23.23l-51.73-6.53
			c2.67,3.94,4.03,8.84,3.49,14.06c-0.99,9.68-8.81,17.56-18.49,18.63c-12.68,1.4-23.41-8.49-23.41-20.88
			c0-6.28,2.76-11.92,7.12-15.76l-61.07-7.73l-45.57-5.76l-73.57-9.29v-4.5l82.38,4.59l33.47,1.86l148.49,8.27
			c0,0,0.05-1.71,0.47-4.47l-71.63-14.01v-3.09l76.08,1.94c4.5-10.04,13.16-20.98,29.73-24.98l6.45-67.1l6.45,67.1
			c16.57,4,25.23,14.94,29.73,24.98l76.08-1.94v3.09l-71.63,14.01c0.42,2.76,0.47,4.47,0.47,4.47l148.47-8.27l33.47-1.86
			L1370.36,508.37z"
            />
	</g>
</g>
</svg>
